<svg width="86" height="25" viewBox="0 0 86 25" fill="none" xmlns="http://www.w3.org/2000/svg">
<path d="M0 4.78055C0 2.14033 2.11925 0 4.73347 0H20.0204C22.6346 0 24.7539 2.14032 24.7539 4.78054V20.2195C24.7539 22.8597 22.6346 25 20.0204 25H4.73348C2.11925 25 0 22.8597 0 20.2195V4.78055Z" fill="#1120F9"/>
<path d="M1.5856 1.24845L13.2675 9.52041H13.2691L12.4824 1.81159L13.0561 1.68101L16.8431 10.7587L21.2537 6.32566L21.6962 6.60258L19.3678 12.4863L24.1717 11.1662L24.4012 11.6547L20.6143 15.0281L24.3522 16.935L24.2374 17.4889L19.0892 17.5542L21.8275 21.4656L21.4832 21.8244L15.679 19.1842L13.1868 24.6439L12.6454 24.5463L12.465 18.2394L4.77552 20.4232L4.5294 19.8851L11.2185 15.648L1.135 12.6168L1.24976 12.0953L10.6606 12.1771L1.13461 1.70358L1.5856 1.24845Z" fill="white"/>
<path d="M34.9086 17.8441V11.5951C34.9086 9.53913 35.6982 8.35552 37.2776 8.35552C38.8569 8.35552 39.6465 9.50656 39.6465 11.5951V17.8281H41.6934V11.5951C41.6934 9.44068 42.4831 8.35552 44.0624 8.35552C45.6418 8.35552 46.4158 9.40812 46.4158 11.5951V17.8281H48.4627V11.8912C48.4627 8.12531 46.9636 6.33287 44.4009 6.33287C42.757 6.33287 41.3387 7.15526 40.6782 8.61905C40.0978 7.13936 39.0988 6.33287 37.4869 6.33287C36.3588 6.33287 35.3591 6.89173 34.9078 7.68156V6.6123H32.8609V17.8441H34.9086ZM58.5035 12.8938C57.9231 14.9823 55.8606 16.3144 54.1359 16.3144C52.6857 16.3144 51.8953 15.3935 51.8953 14.5545C51.8953 13.6337 52.5558 12.8938 54.1514 12.8938H58.5035ZM51.5093 10.3941C52.2025 9.35814 53.6208 8.3222 55.0873 8.3222C56.6993 8.3222 58.1658 9.14459 58.4879 11.1347H54.1366C51.6548 11.1347 49.9946 12.4993 49.9946 14.5386C49.9946 16.5779 51.4611 18.1568 54.1366 18.1568C55.8131 18.1568 57.3598 17.4828 58.5525 16.2493V17.8281H60.4866V12.0063C60.4866 8.02687 57.9075 6.36543 55.0873 6.36543C53.0567 6.36543 50.9935 7.6808 49.93 9.3748L51.5093 10.3941ZM67.6262 16.1341C65.6112 16.1341 63.9673 14.4076 63.9673 12.2198C63.9673 10.0321 65.6112 8.30554 67.6262 8.30554C69.6412 8.30554 71.2851 10.0321 71.2851 12.2198C71.2851 14.4076 69.6412 16.1341 67.6262 16.1341ZM64.4995 18.5347L62.8073 19.6198C63.8063 21.2146 65.6439 22.1196 67.5943 22.1196C70.4472 22.1196 73.2511 20.2612 73.2511 16.4787V6.61154H71.317V8.12456C70.4791 7.0394 69.2055 6.33211 67.6262 6.33211C64.5158 6.33211 62.0332 8.97951 62.0332 12.2191C62.0332 15.4587 64.515 18.1061 67.6262 18.1061C69.0445 18.1061 70.3826 17.3988 71.317 16.3136C71.2524 18.7967 69.5276 20.1454 67.5943 20.1454C66.1114 20.1454 65.0962 19.3571 64.4995 18.5347ZM80.407 18.1068C83.5174 18.1068 86 15.4594 86 12.2198C86 8.98026 83.5182 6.33287 80.407 6.33287C77.2959 6.33287 74.8141 8.98026 74.8141 12.2198C74.8141 15.4594 77.2959 18.1068 80.407 18.1068ZM80.407 16.1341C78.3921 16.1341 76.7482 14.4076 76.7482 12.2198C76.7482 10.0321 78.3921 8.30554 80.407 8.30554C82.422 8.30554 84.0659 10.0321 84.0659 12.2198C84.0659 14.4076 82.422 16.1341 80.407 16.1341Z" fill="white"/>
</svg>
